<svg xmlns="http://www.w3.org/2000/svg">
<!-- Generated by tools/icons/build.py. Do not edit: change the script and run it again. -->
<!-- The Tabler icon pack for plxr. Licences: /licenses/ -->
<!-- overview: tabler/tabler-icons@55f87a73f45c icons/outline/layout-dashboard.svg -->
<symbol id="overview" viewBox="0 0 24 24" fill="none" stroke="currentColor" stroke-width="2" stroke-linecap="round" stroke-linejoin="round"><path d="M5 4h4a1 1 0 0 1 1 1v6a1 1 0 0 1 -1 1h-4a1 1 0 0 1 -1 -1v-6a1 1 0 0 1 1 -1"/><path d="M5 16h4a1 1 0 0 1 1 1v2a1 1 0 0 1 -1 1h-4a1 1 0 0 1 -1 -1v-2a1 1 0 0 1 1 -1"/><path d="M15 12h4a1 1 0 0 1 1 1v6a1 1 0 0 1 -1 1h-4a1 1 0 0 1 -1 -1v-6a1 1 0 0 1 1 -1"/><path d="M15 4h4a1 1 0 0 1 1 1v2a1 1 0 0 1 -1 1h-4a1 1 0 0 1 -1 -1v-2a1 1 0 0 1 1 -1"/></symbol>
<!-- inbox: tabler/tabler-icons@55f87a73f45c icons/outline/inbox.svg -->
<symbol id="inbox" viewBox="0 0 24 24" fill="none" stroke="currentColor" stroke-width="2" stroke-linecap="round" stroke-linejoin="round"><path d="M4 6a2 2 0 0 1 2 -2h12a2 2 0 0 1 2 2v12a2 2 0 0 1 -2 2h-12a2 2 0 0 1 -2 -2l0 -12"/><path d="M4 13h3l3 3h4l3 -3h3"/></symbol>
<!-- folder: tabler/tabler-icons@55f87a73f45c icons/outline/folder.svg -->
<symbol id="folder" viewBox="0 0 24 24" fill="none" stroke="currentColor" stroke-width="2" stroke-linecap="round" stroke-linejoin="round"><path d="M5 4h4l3 3h7a2 2 0 0 1 2 2v8a2 2 0 0 1 -2 2h-14a2 2 0 0 1 -2 -2v-11a2 2 0 0 1 2 -2"/></symbol>
<!-- changes: tabler/tabler-icons@55f87a73f45c icons/outline/git-compare.svg -->
<symbol id="changes" viewBox="0 0 24 24" fill="none" stroke="currentColor" stroke-width="2" stroke-linecap="round" stroke-linejoin="round"><path d="M4 6a2 2 0 1 0 4 0a2 2 0 1 0 -4 0"/><path d="M16 18a2 2 0 1 0 4 0a2 2 0 1 0 -4 0"/><path d="M11 6h5a2 2 0 0 1 2 2v8"/><path d="M14 9l-3 -3l3 -3"/><path d="M13 18h-5a2 2 0 0 1 -2 -2v-8"/><path d="M10 15l3 3l-3 3"/></symbol>
<!-- review: tabler/tabler-icons@55f87a73f45c icons/outline/git-pull-request.svg -->
<symbol id="review" viewBox="0 0 24 24" fill="none" stroke="currentColor" stroke-width="2" stroke-linecap="round" stroke-linejoin="round"><path d="M4 18a2 2 0 1 0 4 0a2 2 0 1 0 -4 0"/><path d="M4 6a2 2 0 1 0 4 0a2 2 0 1 0 -4 0"/><path d="M16 18a2 2 0 1 0 4 0a2 2 0 1 0 -4 0"/><path d="M6 8l0 8"/><path d="M11 6h5a2 2 0 0 1 2 2v8"/><path d="M14 9l-3 -3l3 -3"/></symbol>
<!-- search: tabler/tabler-icons@55f87a73f45c icons/outline/search.svg -->
<symbol id="search" viewBox="0 0 24 24" fill="none" stroke="currentColor" stroke-width="2" stroke-linecap="round" stroke-linejoin="round"><path d="M3 10a7 7 0 1 0 14 0a7 7 0 1 0 -14 0"/><path d="M21 21l-6 -6"/></symbol>
<!-- ports: tabler/tabler-icons@55f87a73f45c icons/outline/plug-connected.svg -->
<symbol id="ports" viewBox="0 0 24 24" fill="none" stroke="currentColor" stroke-width="2" stroke-linecap="round" stroke-linejoin="round"><path d="M7 12l5 5l-1.5 1.5a3.536 3.536 0 1 1 -5 -5l1.5 -1.5"/><path d="M17 12l-5 -5l1.5 -1.5a3.536 3.536 0 1 1 5 5l-1.5 1.5"/><path d="M3 21l2.5 -2.5"/><path d="M18.5 5.5l2.5 -2.5"/><path d="M10 11l-2 2"/><path d="M13 14l-2 2"/></symbol>
<!-- usage: tabler/tabler-icons@55f87a73f45c icons/outline/chart-bar.svg -->
<symbol id="usage" viewBox="0 0 24 24" fill="none" stroke="currentColor" stroke-width="2" stroke-linecap="round" stroke-linejoin="round"><path d="M3 13a1 1 0 0 1 1 -1h4a1 1 0 0 1 1 1v6a1 1 0 0 1 -1 1h-4a1 1 0 0 1 -1 -1l0 -6"/><path d="M15 9a1 1 0 0 1 1 -1h4a1 1 0 0 1 1 1v10a1 1 0 0 1 -1 1h-4a1 1 0 0 1 -1 -1l0 -10"/><path d="M9 5a1 1 0 0 1 1 -1h4a1 1 0 0 1 1 1v14a1 1 0 0 1 -1 1h-4a1 1 0 0 1 -1 -1l0 -14"/><path d="M4 20h14"/></symbol>
<!-- archive: tabler/tabler-icons@55f87a73f45c icons/outline/archive.svg -->
<symbol id="archive" viewBox="0 0 24 24" fill="none" stroke="currentColor" stroke-width="2" stroke-linecap="round" stroke-linejoin="round"><path d="M3 6a2 2 0 0 1 2 -2h14a2 2 0 0 1 2 2a2 2 0 0 1 -2 2h-14a2 2 0 0 1 -2 -2"/><path d="M5 8v10a2 2 0 0 0 2 2h10a2 2 0 0 0 2 -2v-10"/><path d="M10 12l4 0"/></symbol>
<!-- notes: tabler/tabler-icons@55f87a73f45c icons/outline/notes.svg -->
<symbol id="notes" viewBox="0 0 24 24" fill="none" stroke="currentColor" stroke-width="2" stroke-linecap="round" stroke-linejoin="round"><path d="M5 5a2 2 0 0 1 2 -2h10a2 2 0 0 1 2 2v14a2 2 0 0 1 -2 2h-10a2 2 0 0 1 -2 -2l0 -14"/><path d="M9 7l6 0"/><path d="M9 11l6 0"/><path d="M9 15l4 0"/></symbol>
<!-- settings: tabler/tabler-icons@55f87a73f45c icons/outline/settings.svg -->
<symbol id="settings" viewBox="0 0 24 24" fill="none" stroke="currentColor" stroke-width="2" stroke-linecap="round" stroke-linejoin="round"><path d="M10.325 4.317c.426 -1.756 2.924 -1.756 3.35 0a1.724 1.724 0 0 0 2.573 1.066c1.543 -.94 3.31 .826 2.37 2.37a1.724 1.724 0 0 0 1.065 2.572c1.756 .426 1.756 2.924 0 3.35a1.724 1.724 0 0 0 -1.066 2.573c.94 1.543 -.826 3.31 -2.37 2.37a1.724 1.724 0 0 0 -2.572 1.065c-.426 1.756 -2.924 1.756 -3.35 0a1.724 1.724 0 0 0 -2.573 -1.066c-1.543 .94 -3.31 -.826 -2.37 -2.37a1.724 1.724 0 0 0 -1.065 -2.572c-1.756 -.426 -1.756 -2.924 0 -3.35a1.724 1.724 0 0 0 1.066 -2.573c-.94 -1.543 .826 -3.31 2.37 -2.37c1 .608 2.296 .07 2.572 -1.065"/><path d="M9 12a3 3 0 1 0 6 0a3 3 0 0 0 -6 0"/></symbol>
<!-- terminal: tabler/tabler-icons@55f87a73f45c icons/outline/terminal-2.svg -->
<symbol id="terminal" viewBox="0 0 24 24" fill="none" stroke="currentColor" stroke-width="2" stroke-linecap="round" stroke-linejoin="round"><path d="M8 9l3 3l-3 3"/><path d="M13 15l3 0"/><path d="M3 6a2 2 0 0 1 2 -2h14a2 2 0 0 1 2 2v12a2 2 0 0 1 -2 2h-14a2 2 0 0 1 -2 -2l0 -12"/></symbol>
<!-- file: tabler/tabler-icons@55f87a73f45c icons/outline/file.svg -->
<symbol id="file" viewBox="0 0 24 24" fill="none" stroke="currentColor" stroke-width="2" stroke-linecap="round" stroke-linejoin="round"><path d="M14 3v4a1 1 0 0 0 1 1h4"/><path d="M17 21h-10a2 2 0 0 1 -2 -2v-14a2 2 0 0 1 2 -2h7l5 5v11a2 2 0 0 1 -2 2"/></symbol>
<!-- close: tabler/tabler-icons@55f87a73f45c icons/outline/x.svg -->
<symbol id="close" viewBox="0 0 24 24" fill="none" stroke="currentColor" stroke-width="2" stroke-linecap="round" stroke-linejoin="round"><path d="M18 6l-12 12"/><path d="M6 6l12 12"/></symbol>
<!-- chevron-right: tabler/tabler-icons@55f87a73f45c icons/outline/chevron-right.svg -->
<symbol id="chevron-right" viewBox="0 0 24 24" fill="none" stroke="currentColor" stroke-width="2" stroke-linecap="round" stroke-linejoin="round"><path d="M9 6l6 6l-6 6"/></symbol>
<!-- chevron-down: tabler/tabler-icons@55f87a73f45c icons/outline/chevron-down.svg -->
<symbol id="chevron-down" viewBox="0 0 24 24" fill="none" stroke="currentColor" stroke-width="2" stroke-linecap="round" stroke-linejoin="round"><path d="M6 9l6 6l6 -6"/></symbol>
<!-- play: tabler/tabler-icons@55f87a73f45c icons/outline/player-play.svg -->
<symbol id="play" viewBox="0 0 24 24" fill="none" stroke="currentColor" stroke-width="2" stroke-linecap="round" stroke-linejoin="round"><path d="M7 4v16l13 -8l-13 -8"/></symbol>
<!-- pause: tabler/tabler-icons@55f87a73f45c icons/outline/player-pause.svg -->
<symbol id="pause" viewBox="0 0 24 24" fill="none" stroke="currentColor" stroke-width="2" stroke-linecap="round" stroke-linejoin="round"><path d="M6 6a1 1 0 0 1 1 -1h2a1 1 0 0 1 1 1v12a1 1 0 0 1 -1 1h-2a1 1 0 0 1 -1 -1l0 -12"/><path d="M14 6a1 1 0 0 1 1 -1h2a1 1 0 0 1 1 1v12a1 1 0 0 1 -1 1h-2a1 1 0 0 1 -1 -1l0 -12"/></symbol>
<!-- stop: tabler/tabler-icons@55f87a73f45c icons/outline/player-stop.svg -->
<symbol id="stop" viewBox="0 0 24 24" fill="none" stroke="currentColor" stroke-width="2" stroke-linecap="round" stroke-linejoin="round"><path d="M5 7a2 2 0 0 1 2 -2h10a2 2 0 0 1 2 2v10a2 2 0 0 1 -2 2h-10a2 2 0 0 1 -2 -2l0 -10"/></symbol>
<!-- warning: tabler/tabler-icons@55f87a73f45c icons/outline/alert-triangle.svg -->
<symbol id="warning" viewBox="0 0 24 24" fill="none" stroke="currentColor" stroke-width="2" stroke-linecap="round" stroke-linejoin="round"><path d="M12 9v4"/><path d="M10.363 3.591l-8.106 13.534a1.914 1.914 0 0 0 1.636 2.871h16.214a1.914 1.914 0 0 0 1.636 -2.87l-8.106 -13.536a1.914 1.914 0 0 0 -3.274 0"/><path d="M12 16h.01"/></symbol>
<!-- check: tabler/tabler-icons@55f87a73f45c icons/outline/check.svg -->
<symbol id="check" viewBox="0 0 24 24" fill="none" stroke="currentColor" stroke-width="2" stroke-linecap="round" stroke-linejoin="round"><path d="M5 12l5 5l10 -10"/></symbol>
<!-- git-branch: tabler/tabler-icons@55f87a73f45c icons/outline/git-branch.svg -->
<symbol id="git-branch" viewBox="0 0 24 24" fill="none" stroke="currentColor" stroke-width="2" stroke-linecap="round" stroke-linejoin="round"><path d="M5 18a2 2 0 1 0 4 0a2 2 0 1 0 -4 0"/><path d="M5 6a2 2 0 1 0 4 0a2 2 0 1 0 -4 0"/><path d="M15 6a2 2 0 1 0 4 0a2 2 0 1 0 -4 0"/><path d="M7 8l0 8"/><path d="M9 18h6a2 2 0 0 0 2 -2v-5"/><path d="M14 14l3 -3l3 3"/></symbol>
<!-- diff: tabler/tabler-icons@55f87a73f45c icons/outline/file-diff.svg -->
<symbol id="diff" viewBox="0 0 24 24" fill="none" stroke="currentColor" stroke-width="2" stroke-linecap="round" stroke-linejoin="round"><path d="M14 3v4a1 1 0 0 0 1 1h4"/><path d="M17 21h-10a2 2 0 0 1 -2 -2v-14a2 2 0 0 1 2 -2h7l5 5v11a2 2 0 0 1 -2 2"/><path d="M12 10l0 4"/><path d="M10 12l4 0"/><path d="M10 17l4 0"/></symbol>
<!-- help: tabler/tabler-icons@55f87a73f45c icons/outline/help.svg -->
<symbol id="help" viewBox="0 0 24 24" fill="none" stroke="currentColor" stroke-width="2" stroke-linecap="round" stroke-linejoin="round"><path d="M3 12a9 9 0 1 0 18 0a9 9 0 1 0 -18 0"/><path d="M12 17l0 .01"/><path d="M12 13.5a1.5 1.5 0 0 1 1 -1.5a2.6 2.6 0 1 0 -3 -4"/></symbol>
<!-- reset: tabler/tabler-icons@55f87a73f45c icons/outline/restore.svg -->
<symbol id="reset" viewBox="0 0 24 24" fill="none" stroke="currentColor" stroke-width="2" stroke-linecap="round" stroke-linejoin="round"><path d="M3.06 13a9 9 0 1 0 .49 -4.087"/><path d="M3 4.001v5h5"/><path d="M11 12a1 1 0 1 0 2 0a1 1 0 1 0 -2 0"/></symbol>
<!-- plus: tabler/tabler-icons@55f87a73f45c icons/outline/plus.svg -->
<symbol id="plus" viewBox="0 0 24 24" fill="none" stroke="currentColor" stroke-width="2" stroke-linecap="round" stroke-linejoin="round"><path d="M12 5l0 14"/><path d="M5 12l14 0"/></symbol>
<!-- preview: tabler/tabler-icons@55f87a73f45c icons/outline/app-window.svg -->
<symbol id="preview" viewBox="0 0 24 24" fill="none" stroke="currentColor" stroke-width="2" stroke-linecap="round" stroke-linejoin="round"><path d="M3 7a2 2 0 0 1 2 -2h14a2 2 0 0 1 2 2v10a2 2 0 0 1 -2 2h-14a2 2 0 0 1 -2 -2v-10"/><path d="M6 8h.01"/><path d="M9 8h.01"/></symbol>
<!-- file-code: tabler/tabler-icons@55f87a73f45c icons/outline/file-code.svg -->
<symbol id="file-code" viewBox="0 0 24 24" fill="none" stroke="currentColor" stroke-width="2" stroke-linecap="round" stroke-linejoin="round"><path d="M14 3v4a1 1 0 0 0 1 1h4"/><path d="M17 21h-10a2 2 0 0 1 -2 -2v-14a2 2 0 0 1 2 -2h7l5 5v11a2 2 0 0 1 -2 2"/><path d="M10 13l-1 2l1 2"/><path d="M14 13l1 2l-1 2"/></symbol>
<!-- file-ts: tabler/tabler-icons@55f87a73f45c icons/outline/file-type-ts.svg -->
<symbol id="file-ts" viewBox="0 0 24 24" fill="none" stroke="currentColor" stroke-width="2" stroke-linecap="round" stroke-linejoin="round"><path d="M14 3v4a1 1 0 0 0 1 1h4"/><path d="M5 12v-7a2 2 0 0 1 2 -2h7l5 5v11a2 2 0 0 1 -2 2h-1"/><path d="M14 3v4a1 1 0 0 0 1 1h4"/><path d="M9 20.25c0 .414 .336 .75 .75 .75h1.25a1 1 0 0 0 1 -1v-1a1 1 0 0 0 -1 -1h-1a1 1 0 0 1 -1 -1v-1a1 1 0 0 1 1 -1h1.25a.75 .75 0 0 1 .75 .75"/><path d="M3.5 15h3"/><path d="M5 15v6"/></symbol>
<!-- file-tsx: tabler/tabler-icons@55f87a73f45c icons/outline/file-type-tsx.svg -->
<symbol id="file-tsx" viewBox="0 0 24 24" fill="none" stroke="currentColor" stroke-width="2" stroke-linecap="round" stroke-linejoin="round"><path d="M5 12v-7a2 2 0 0 1 2 -2h7l5 5v4"/><path d="M14 3v4a1 1 0 0 0 1 1h4"/><path d="M16 15l4 6"/><path d="M16 21l4 -6"/><path d="M10 20.25c0 .414 .336 .75 .75 .75h1.25a1 1 0 0 0 1 -1v-1a1 1 0 0 0 -1 -1h-1a1 1 0 0 1 -1 -1v-1a1 1 0 0 1 1 -1h1.25a.75 .75 0 0 1 .75 .75"/><path d="M4.5 15h3"/><path d="M6 15v6"/></symbol>
<!-- file-js: tabler/tabler-icons@55f87a73f45c icons/outline/file-type-js.svg -->
<symbol id="file-js" viewBox="0 0 24 24" fill="none" stroke="currentColor" stroke-width="2" stroke-linecap="round" stroke-linejoin="round"><path d="M14 3v4a1 1 0 0 0 1 1h4"/><path d="M3 15h3v4.5a1.5 1.5 0 0 1 -3 0"/><path d="M9 20.25c0 .414 .336 .75 .75 .75h1.25a1 1 0 0 0 1 -1v-1a1 1 0 0 0 -1 -1h-1a1 1 0 0 1 -1 -1v-1a1 1 0 0 1 1 -1h1.25a.75 .75 0 0 1 .75 .75"/><path d="M5 12v-7a2 2 0 0 1 2 -2h7l5 5v11a2 2 0 0 1 -2 2h-1"/></symbol>
<!-- file-jsx: tabler/tabler-icons@55f87a73f45c icons/outline/file-type-jsx.svg -->
<symbol id="file-jsx" viewBox="0 0 24 24" fill="none" stroke="currentColor" stroke-width="2" stroke-linecap="round" stroke-linejoin="round"><path d="M14 3v4a1 1 0 0 0 1 1h4"/><path d="M5 12v-7a2 2 0 0 1 2 -2h7l5 5v4"/><path d="M4 15h3v4.5a1.5 1.5 0 0 1 -3 0"/><path d="M10 20.25c0 .414 .336 .75 .75 .75h1.25a1 1 0 0 0 1 -1v-1a1 1 0 0 0 -1 -1h-1a1 1 0 0 1 -1 -1v-1a1 1 0 0 1 1 -1h1.25a.75 .75 0 0 1 .75 .75"/><path d="M16 15l4 6"/><path d="M16 21l4 -6"/></symbol>
<!-- file-go: tabler/tabler-icons@55f87a73f45c icons/outline/file-code.svg -->
<symbol id="file-go" viewBox="0 0 24 24" fill="none" stroke="currentColor" stroke-width="2" stroke-linecap="round" stroke-linejoin="round"><path d="M14 3v4a1 1 0 0 0 1 1h4"/><path d="M17 21h-10a2 2 0 0 1 -2 -2v-14a2 2 0 0 1 2 -2h7l5 5v11a2 2 0 0 1 -2 2"/><path d="M10 13l-1 2l1 2"/><path d="M14 13l1 2l-1 2"/></symbol>
<!-- file-py: tabler/tabler-icons@55f87a73f45c icons/outline/file-code.svg -->
<symbol id="file-py" viewBox="0 0 24 24" fill="none" stroke="currentColor" stroke-width="2" stroke-linecap="round" stroke-linejoin="round"><path d="M14 3v4a1 1 0 0 0 1 1h4"/><path d="M17 21h-10a2 2 0 0 1 -2 -2v-14a2 2 0 0 1 2 -2h7l5 5v11a2 2 0 0 1 -2 2"/><path d="M10 13l-1 2l1 2"/><path d="M14 13l1 2l-1 2"/></symbol>
<!-- file-rs: tabler/tabler-icons@55f87a73f45c icons/outline/file-type-rs.svg -->
<symbol id="file-rs" viewBox="0 0 24 24" fill="none" stroke="currentColor" stroke-width="2" stroke-linecap="round" stroke-linejoin="round"><path d="M14 3v4a1 1 0 0 0 1 1h4"/><path d="M14 3v4a1 1 0 0 0 1 1h4"/><path d="M9 20.25c0 .414 .336 .75 .75 .75h1.25a1 1 0 0 0 1 -1v-1a1 1 0 0 0 -1 -1h-1a1 1 0 0 1 -1 -1v-1a1 1 0 0 1 1 -1h1.25a.75 .75 0 0 1 .75 .75"/><path d="M5 12v-7a2 2 0 0 1 2 -2h7l5 5v11a2 2 0 0 1 -2 2h-1"/><path d="M3 18h1.5a1.5 1.5 0 0 0 0 -3h-1.5v6m3 0l-2 -3"/></symbol>
<!-- file-php: tabler/tabler-icons@55f87a73f45c icons/outline/file-type-php.svg -->
<symbol id="file-php" viewBox="0 0 24 24" fill="none" stroke="currentColor" stroke-width="2" stroke-linecap="round" stroke-linejoin="round"><path d="M14 3v4a1 1 0 0 0 1 1h4"/><path d="M5 12v-7a2 2 0 0 1 2 -2h7l5 5v4"/><path d="M5 18h1.5a1.5 1.5 0 0 0 0 -3h-1.5v6"/><path d="M17 18h1.5a1.5 1.5 0 0 0 0 -3h-1.5v6"/><path d="M11 21v-6"/><path d="M14 15v6"/><path d="M11 18h3"/></symbol>
<!-- file-shell: tabler/tabler-icons@55f87a73f45c icons/outline/script.svg -->
<symbol id="file-shell" viewBox="0 0 24 24" fill="none" stroke="currentColor" stroke-width="2" stroke-linecap="round" stroke-linejoin="round"><path d="M17 20h-11a3 3 0 0 1 0 -6h11a3 3 0 0 0 0 6h1a3 3 0 0 0 3 -3v-11a2 2 0 0 0 -2 -2h-10a2 2 0 0 0 -2 2v8"/></symbol>
<!-- file-css: tabler/tabler-icons@55f87a73f45c icons/outline/file-type-css.svg -->
<symbol id="file-css" viewBox="0 0 24 24" fill="none" stroke="currentColor" stroke-width="2" stroke-linecap="round" stroke-linejoin="round"><path d="M14 3v4a1 1 0 0 0 1 1h4"/><path d="M5 12v-7a2 2 0 0 1 2 -2h7l5 5v4"/><path d="M8 16.5a1.5 1.5 0 0 0 -3 0v3a1.5 1.5 0 0 0 3 0"/><path d="M11 20.25c0 .414 .336 .75 .75 .75h1.25a1 1 0 0 0 1 -1v-1a1 1 0 0 0 -1 -1h-1a1 1 0 0 1 -1 -1v-1a1 1 0 0 1 1 -1h1.25a.75 .75 0 0 1 .75 .75"/><path d="M17 20.25c0 .414 .336 .75 .75 .75h1.25a1 1 0 0 0 1 -1v-1a1 1 0 0 0 -1 -1h-1a1 1 0 0 1 -1 -1v-1a1 1 0 0 1 1 -1h1.25a.75 .75 0 0 1 .75 .75"/></symbol>
<!-- file-html: tabler/tabler-icons@55f87a73f45c icons/outline/file-type-html.svg -->
<symbol id="file-html" viewBox="0 0 24 24" fill="none" stroke="currentColor" stroke-width="2" stroke-linecap="round" stroke-linejoin="round"><path d="M14 3v4a1 1 0 0 0 1 1h4"/><path d="M5 12v-7a2 2 0 0 1 2 -2h7l5 5v4"/><path d="M2 21v-6"/><path d="M5 15v6"/><path d="M2 18h3"/><path d="M20 15v6h2"/><path d="M13 21v-6l2 3l2 -3v6"/><path d="M7.5 15h3"/><path d="M9 15v6"/></symbol>
<!-- file-json: tabler/tabler-icons@55f87a73f45c icons/outline/braces.svg -->
<symbol id="file-json" viewBox="0 0 24 24" fill="none" stroke="currentColor" stroke-width="2" stroke-linecap="round" stroke-linejoin="round"><path d="M7 4a2 2 0 0 0 -2 2v3a2 3 0 0 1 -2 3a2 3 0 0 1 2 3v3a2 2 0 0 0 2 2"/><path d="M17 4a2 2 0 0 1 2 2v3a2 3 0 0 0 2 3a2 3 0 0 0 -2 3v3a2 2 0 0 1 -2 2"/></symbol>
<!-- file-config: tabler/tabler-icons@55f87a73f45c icons/outline/file-settings.svg -->
<symbol id="file-config" viewBox="0 0 24 24" fill="none" stroke="currentColor" stroke-width="2" stroke-linecap="round" stroke-linejoin="round"><path d="M10 14a2 2 0 1 0 4 0a2 2 0 1 0 -4 0"/><path d="M12 10.5v1.5"/><path d="M12 16v1.5"/><path d="M15.031 12.25l-1.299 .75"/><path d="M10.268 15l-1.3 .75"/><path d="M15 15.803l-1.285 -.773"/><path d="M10.285 12.97l-1.285 -.773"/><path d="M14 3v4a1 1 0 0 0 1 1h4"/><path d="M17 21h-10a2 2 0 0 1 -2 -2v-14a2 2 0 0 1 2 -2h7l5 5v11a2 2 0 0 1 -2 2"/></symbol>
<!-- file-env: tabler/tabler-icons@55f87a73f45c icons/outline/key.svg -->
<symbol id="file-env" viewBox="0 0 24 24" fill="none" stroke="currentColor" stroke-width="2" stroke-linecap="round" stroke-linejoin="round"><path d="M16.555 3.843l3.602 3.602a2.877 2.877 0 0 1 0 4.069l-2.643 2.643a2.877 2.877 0 0 1 -4.069 0l-.301 -.301l-6.558 6.558a2 2 0 0 1 -1.239 .578l-.175 .008h-1.172a1 1 0 0 1 -.993 -.883l-.007 -.117v-1.172a2 2 0 0 1 .467 -1.284l.119 -.13l.414 -.414h2v-2h2v-2l2.144 -2.144l-.301 -.301a2.877 2.877 0 0 1 0 -4.069l2.643 -2.643a2.877 2.877 0 0 1 4.069 0"/><path d="M15 9h.01"/></symbol>
<!-- file-sql: tabler/tabler-icons@55f87a73f45c icons/outline/file-type-sql.svg -->
<symbol id="file-sql" viewBox="0 0 24 24" fill="none" stroke="currentColor" stroke-width="2" stroke-linecap="round" stroke-linejoin="round"><path d="M14 3v4a1 1 0 0 0 1 1h4"/><path d="M14 3v4a1 1 0 0 0 1 1h4"/><path d="M5 20.25c0 .414 .336 .75 .75 .75h1.25a1 1 0 0 0 1 -1v-1a1 1 0 0 0 -1 -1h-1a1 1 0 0 1 -1 -1v-1a1 1 0 0 1 1 -1h1.25a.75 .75 0 0 1 .75 .75"/><path d="M5 12v-7a2 2 0 0 1 2 -2h7l5 5v4"/><path d="M18 15v6h2"/><path d="M13 15a2 2 0 0 1 2 2v2a2 2 0 1 1 -4 0v-2a2 2 0 0 1 2 -2"/><path d="M14 20l1.5 1.5"/></symbol>
<!-- file-csv: tabler/tabler-icons@55f87a73f45c icons/outline/file-type-csv.svg -->
<symbol id="file-csv" viewBox="0 0 24 24" fill="none" stroke="currentColor" stroke-width="2" stroke-linecap="round" stroke-linejoin="round"><path d="M14 3v4a1 1 0 0 0 1 1h4"/><path d="M5 12v-7a2 2 0 0 1 2 -2h7l5 5v4"/><path d="M7 16.5a1.5 1.5 0 0 0 -3 0v3a1.5 1.5 0 0 0 3 0"/><path d="M10 20.25c0 .414 .336 .75 .75 .75h1.25a1 1 0 0 0 1 -1v-1a1 1 0 0 0 -1 -1h-1a1 1 0 0 1 -1 -1v-1a1 1 0 0 1 1 -1h1.25a.75 .75 0 0 1 .75 .75"/><path d="M16 15l2 6l2 -6"/></symbol>
<!-- file-markdown: tabler/tabler-icons@55f87a73f45c icons/outline/markdown.svg -->
<symbol id="file-markdown" viewBox="0 0 24 24" fill="none" stroke="currentColor" stroke-width="2" stroke-linecap="round" stroke-linejoin="round"><path d="M3 7a2 2 0 0 1 2 -2h14a2 2 0 0 1 2 2v10a2 2 0 0 1 -2 2h-14a2 2 0 0 1 -2 -2v-10"/><path d="M7 15v-6l2 2l2 -2v6"/><path d="M14 13l2 2l2 -2m-2 2v-6"/></symbol>
<!-- file-text: tabler/tabler-icons@55f87a73f45c icons/outline/file-type-txt.svg -->
<symbol id="file-text" viewBox="0 0 24 24" fill="none" stroke="currentColor" stroke-width="2" stroke-linecap="round" stroke-linejoin="round"><path d="M14 3v4a1 1 0 0 0 1 1h4"/><path d="M14 3v4a1 1 0 0 0 1 1h4"/><path d="M16.5 15h3"/><path d="M5 12v-7a2 2 0 0 1 2 -2h7l5 5v4"/><path d="M4.5 15h3"/><path d="M6 15v6"/><path d="M18 15v6"/><path d="M10 15l4 6"/><path d="M10 21l4 -6"/></symbol>
<!-- file-png: tabler/tabler-icons@55f87a73f45c icons/outline/file-type-png.svg -->
<symbol id="file-png" viewBox="0 0 24 24" fill="none" stroke="currentColor" stroke-width="2" stroke-linecap="round" stroke-linejoin="round"><path d="M14 3v4a1 1 0 0 0 1 1h4"/><path d="M5 12v-7a2 2 0 0 1 2 -2h7l5 5v4"/><path d="M20 15h-1a2 2 0 0 0 -2 2v2a2 2 0 0 0 2 2h1v-3"/><path d="M5 18h1.5a1.5 1.5 0 0 0 0 -3h-1.5v6"/><path d="M11 21v-6l3 6v-6"/></symbol>
<!-- file-jpg: tabler/tabler-icons@55f87a73f45c icons/outline/file-type-jpg.svg -->
<symbol id="file-jpg" viewBox="0 0 24 24" fill="none" stroke="currentColor" stroke-width="2" stroke-linecap="round" stroke-linejoin="round"><path d="M14 3v4a1 1 0 0 0 1 1h4"/><path d="M5 12v-7a2 2 0 0 1 2 -2h7l5 5v4"/><path d="M11 18h1.5a1.5 1.5 0 0 0 0 -3h-1.5v6"/><path d="M20 15h-1a2 2 0 0 0 -2 2v2a2 2 0 0 0 2 2h1v-3"/><path d="M5 15h3v4.5a1.5 1.5 0 0 1 -3 0"/></symbol>
<!-- file-svg: tabler/tabler-icons@55f87a73f45c icons/outline/file-type-svg.svg -->
<symbol id="file-svg" viewBox="0 0 24 24" fill="none" stroke="currentColor" stroke-width="2" stroke-linecap="round" stroke-linejoin="round"><path d="M14 3v4a1 1 0 0 0 1 1h4"/><path d="M5 12v-7a2 2 0 0 1 2 -2h7l5 5v4"/><path d="M4 20.25c0 .414 .336 .75 .75 .75h1.25a1 1 0 0 0 1 -1v-1a1 1 0 0 0 -1 -1h-1a1 1 0 0 1 -1 -1v-1a1 1 0 0 1 1 -1h1.25a.75 .75 0 0 1 .75 .75"/><path d="M10 15l2 6l2 -6"/><path d="M20 15h-1a2 2 0 0 0 -2 2v2a2 2 0 0 0 2 2h1v-3"/></symbol>
<!-- file-image: tabler/tabler-icons@55f87a73f45c icons/outline/photo.svg -->
<symbol id="file-image" viewBox="0 0 24 24" fill="none" stroke="currentColor" stroke-width="2" stroke-linecap="round" stroke-linejoin="round"><path d="M15 8h.01"/><path d="M3 6a3 3 0 0 1 3 -3h12a3 3 0 0 1 3 3v12a3 3 0 0 1 -3 3h-12a3 3 0 0 1 -3 -3v-12"/><path d="M3 16l5 -5c.928 -.893 2.072 -.893 3 0l5 5"/><path d="M14 14l1 -1c.928 -.893 2.072 -.893 3 0l3 3"/></symbol>
<!-- file-zip: tabler/tabler-icons@55f87a73f45c icons/outline/file-type-zip.svg -->
<symbol id="file-zip" viewBox="0 0 24 24" fill="none" stroke="currentColor" stroke-width="2" stroke-linecap="round" stroke-linejoin="round"><path d="M14 3v4a1 1 0 0 0 1 1h4"/><path d="M5 12v-7a2 2 0 0 1 2 -2h7l5 5v4"/><path d="M16 18h1.5a1.5 1.5 0 0 0 0 -3h-1.5v6"/><path d="M12 15v6"/><path d="M5 15h3l-3 6h3"/></symbol>
<!-- file-archive: tabler/tabler-icons@55f87a73f45c icons/outline/file-zip.svg -->
<symbol id="file-archive" viewBox="0 0 24 24" fill="none" stroke="currentColor" stroke-width="2" stroke-linecap="round" stroke-linejoin="round"><path d="M6 20.735a2 2 0 0 1 -1 -1.735v-14a2 2 0 0 1 2 -2h7l5 5v11a2 2 0 0 1 -2 2h-1"/><path d="M11 17a2 2 0 0 1 2 2v2a1 1 0 0 1 -1 1h-2a1 1 0 0 1 -1 -1v-2a2 2 0 0 1 2 -2"/><path d="M11 5l-1 0"/><path d="M13 7l-1 0"/><path d="M11 9l-1 0"/><path d="M13 11l-1 0"/><path d="M11 13l-1 0"/><path d="M13 15l-1 0"/></symbol>
<!-- file-lock: tabler/tabler-icons@55f87a73f45c icons/outline/lock.svg -->
<symbol id="file-lock" viewBox="0 0 24 24" fill="none" stroke="currentColor" stroke-width="2" stroke-linecap="round" stroke-linejoin="round"><path d="M5 13a2 2 0 0 1 2 -2h10a2 2 0 0 1 2 2v6a2 2 0 0 1 -2 2h-10a2 2 0 0 1 -2 -2v-6"/><path d="M11 16a1 1 0 1 0 2 0a1 1 0 0 0 -2 0"/><path d="M8 11v-4a4 4 0 1 1 8 0v4"/></symbol>
<!-- file-manifest: tabler/tabler-icons@55f87a73f45c icons/outline/package.svg -->
<symbol id="file-manifest" viewBox="0 0 24 24" fill="none" stroke="currentColor" stroke-width="2" stroke-linecap="round" stroke-linejoin="round"><path d="M12 3l8 4.5l0 9l-8 4.5l-8 -4.5l0 -9l8 -4.5"/><path d="M12 12l8 -4.5"/><path d="M12 12l0 9"/><path d="M12 12l-8 -4.5"/><path d="M16 5.25l-8 4.5"/></symbol>
<!-- file-build: tabler/tabler-icons@55f87a73f45c icons/outline/tool.svg -->
<symbol id="file-build" viewBox="0 0 24 24" fill="none" stroke="currentColor" stroke-width="2" stroke-linecap="round" stroke-linejoin="round"><path d="M7 10h3v-3l-3.5 -3.5a6 6 0 0 1 8 8l6 6a2 2 0 0 1 -3 3l-6 -6a6 6 0 0 1 -8 -8l3.5 3.5"/></symbol>
<!-- file-readme: tabler/tabler-icons@55f87a73f45c icons/outline/book.svg -->
<symbol id="file-readme" viewBox="0 0 24 24" fill="none" stroke="currentColor" stroke-width="2" stroke-linecap="round" stroke-linejoin="round"><path d="M3 19a9 9 0 0 1 9 0a9 9 0 0 1 9 0"/><path d="M3 6a9 9 0 0 1 9 0a9 9 0 0 1 9 0"/><path d="M3 6l0 13"/><path d="M12 6l0 13"/><path d="M21 6l0 13"/></symbol>
</svg>
